name C:\Users\u0101727\Documents\MyRepositories\upper-imu-dc\Results\main_mocap_tracking\Case_9\kinematics.mot
datacolumns 12
datarows 19
range 1.00000000 1.18000000
endheader 
time	clav_prot	clav_elev	scapula_abduction	scapula_elevation	scapula_upward_rot	scapula_winging	plane_elv	shoulder_elv	axial_rot	elbow_flexion	pro_sup	
          1.00000000	        -26.49596467	        -25.85155321	        -16.94759731	        -21.13394958	         11.14688750	         20.33430568	         89.63966162	         10.59321233	         -6.84800505	          1.53162378	         25.99037312	
          1.01000000	        -25.88051638	        -24.27183516	        -15.78311367	        -19.86710473	         11.72078110	         18.67058153	         88.25740648	         12.28420576	         -7.02589311	          2.62447875	         25.80355038	
          1.02000000	        -25.24100513	        -22.72980486	        -14.56226891	        -18.64888378	         12.23220135	         17.12395244	         86.85889814	         13.94619837	         -7.24143591	          3.69043127	         25.58866664	
          1.03000000	        -24.77733596	        -21.23065536	        -13.67575209	        -17.47925883	         12.68215908	         15.69489204	         85.47116170	         15.58385899	         -7.47724380	          4.69897015	         25.35599582	
          1.04000000	        -24.59100269	        -19.75351184	        -13.29210658	        -16.34835943	         13.08395624	         14.36769686	         84.13877379	         17.20655364	         -7.70450885	          5.65152102	         25.15521805	
          1.05000000	        -24.66441213	        -18.29262311	        -13.36859058	        -15.25409853	         13.46167016	         13.13159530	         82.88254475	         18.81071177	         -7.89960327	          6.56363688	         25.01353422	
          1.06000000	        -24.86472664	        -16.85787799	        -13.66771235	        -14.19895371	         13.83462858	         11.98039647	         81.71662993	         20.39015350	         -8.05130937	          7.43976991	         24.95105852	
          1.07000000	        -25.06352695	        -15.46342794	        -13.96042128	        -13.18890113	         14.22063388	         10.91172648	         80.63910223	         21.93456375	         -8.16080656	          8.28197212	         24.97301659	
          1.08000000	        -25.20375455	        -14.12027479	        -14.14145012	        -12.23102764	         14.63366591	          9.92449866	         79.63721476	         23.43261048	         -8.24016602	          9.08829857	         25.07071625	
          1.09000000	        -25.26434919	        -12.83643670	        -14.16887356	        -11.33117289	         15.08304064	          9.01658688	         78.68724814	         24.87360441	         -8.30929954	          9.85622902	         25.22116919	
          1.10000000	        -25.24362255	        -11.61657366	        -14.03672779	        -10.49222799	         15.57174242	          8.18402350	         77.76101775	         26.25026572	         -8.39105578	         10.58313485	         25.39254448	
          1.11000000	        -25.15140516	        -10.46114695	        -13.76217292	         -9.71303368	         16.09628608	          7.42088762	         76.83149116	         27.56023364	         -8.50695283	         11.26706238	         25.54957017	
          1.12000000	        -25.00240747	         -9.36623041	        -13.37372748	         -8.98835106	         16.64853606	          6.71981178	         75.87935802	         28.80625833	         -8.67182728	         11.90376722	         25.66140295	
          1.13000000	        -24.81146345	         -8.32456013	        -12.90200639	         -8.31008516	         17.21832848	          6.07298603	         74.89625357	         29.99493943	         -8.89068668	         12.48638046	         25.70840874	
          1.14000000	        -24.59672098	         -7.32780612	        -12.38435067	         -7.66959258	         17.79481095	          5.47356127	         73.88629521	         31.13541022	         -9.16015502	         13.01124555	         25.68507292	
          1.15000000	        -24.37454428	         -6.36900774	        -11.85404232	         -7.05989580	         18.36935954	          4.91628769	         72.86388898	         32.23653982	         -9.47037583	         13.47854645	         25.60012316	
          1.16000000	        -24.15567325	         -5.44403198	        -11.33257359	         -6.47677229	         18.93675288	          4.39753442	         71.85029890	         33.30523264	         -9.80795129	         13.89092997	         25.47242139	
          1.17000000	        -23.94375230	         -4.55184549	        -10.82724022	         -5.91862229	         19.49439389	          3.91497933	         70.86864423	         34.34596442	        -10.15993028	         14.25259457	         25.32409417	
          1.18000000	        -23.73591662	         -3.69374902	        -10.33327360	         -5.38541173	         20.04030529	          3.46723130	         69.93965703	         35.36163778	        -10.51686718	         14.56848937	         25.17414084	
